<svg width="32" height="32" viewBox="0 0 32 32" fill="none" xmlns="http://www.w3.org/2000/svg">
<path d="M14.6666 5.3335H5.33329C4.62605 5.3335 3.94777 5.61445 3.44767 6.11454C2.94758 6.61464 2.66663 7.29292 2.66663 8.00016V26.6668C2.66663 27.3741 2.94758 28.0524 3.44767 28.5524C3.94777 29.0525 4.62605 29.3335 5.33329 29.3335H24C24.7072 29.3335 25.3855 29.0525 25.8856 28.5524C26.3857 28.0524 26.6666 27.3741 26.6666 26.6668V17.3335" stroke="black" stroke-width="3" stroke-linecap="round" stroke-linejoin="round"/>
<path d="M24.6666 3.33331C25.1971 2.80288 25.9165 2.50488 26.6666 2.50488C27.4168 2.50488 28.1362 2.80288 28.6666 3.33331C29.1971 3.86374 29.4951 4.58316 29.4951 5.33331C29.4951 6.08346 29.1971 6.80288 28.6666 7.33331L16 20L10.6666 21.3333L12 16L24.6666 3.33331Z" stroke="black" stroke-width="3" stroke-linecap="round" stroke-linejoin="round"/>
</svg>
