<svg width="32" height="37" viewBox="0 0 32 37" fill="none" xmlns="http://www.w3.org/2000/svg">
<g clip-path="url(#clip0_420_1871)">
<path d="M30.8571 5.71429H24.9729L22.5443 1.66071C21.8643 0.6305 20.8143 0 19.6143 0H12.3857C11.1857 0 10.0714 0.6305 9.45714 1.66071L7.02714 5.71429H1.14286C0.508929 5.71429 0 6.22357 0 6.85714V8C0 8.63571 0.508929 9.14286 1.14286 9.14286H2.28571V32C2.28571 34.525 4.33214 36.5714 6.85714 36.5714H25.1429C27.6679 36.5714 29.7143 34.525 29.7143 32V9.14286H30.8571C31.4929 9.14286 32 8.63571 32 8V6.85714C32 6.22357 31.4929 5.71429 30.8571 5.71429ZM12.2786 3.63429C12.35 3.50929 12.4929 3.42857 12.6429 3.42857H19.3571C19.5089 3.42857 19.6518 3.50893 19.7232 3.63393L20.9714 5.71429H11.0286L12.2786 3.63429ZM25.1429 33.1429H6.85714C6.22593 33.1429 5.71429 32.6312 5.71429 32V9.14286H26.2857V32C26.2857 32.6286 25.7714 33.1429 25.1429 33.1429ZM16 29.7143C16.6317 29.7143 17.1429 29.2031 17.1429 28.5714V13.7143C17.1429 13.0826 16.6317 12.5714 16 12.5714C15.3683 12.5714 14.8571 13.0857 14.8571 13.7143V28.5714C14.8571 29.2 15.3714 29.7143 16 29.7143ZM10.2857 29.7143C10.9143 29.7143 11.4286 29.2 11.4286 28.5714V13.7143C11.4286 13.0826 10.9174 12.5714 10.2857 12.5714C9.654 12.5714 9.14286 13.0857 9.14286 13.7143V28.5714C9.14286 29.2 9.65714 29.7143 10.2857 29.7143ZM21.7143 29.7143C22.346 29.7143 22.8571 29.2031 22.8571 28.5714V13.7143C22.8571 13.0826 22.346 12.5714 21.7143 12.5714C21.0826 12.5714 20.5714 13.0857 20.5714 13.7143V28.5714C20.5714 29.2 21.0857 29.7143 21.7143 29.7143Z" fill="black"/>
</g>
<defs>
<clipPath id="clip0_420_1871">
<rect width="32" height="36.5714" fill="white"/>
</clipPath>
</defs>
</svg>
