<svg width="15" height="31" viewBox="0 0 15 31" fill="none" xmlns="http://www.w3.org/2000/svg">
<g clip-path="url(#clip0_420_1876)">
<path d="M13.1106 13.0833H1.4482C1.17766 13.0821 0.906247 12.9572 0.686513 12.7028C0.20362 12.1426 0.152812 11.1666 0.573172 10.5237L6.55462 1.38209C6.59587 1.32023 6.64103 1.26068 6.69054 1.20691C7.18385 0.663418 7.91471 0.755348 8.32247 1.41216L13.9665 10.4936C14.1629 10.7784 14.2717 11.1512 14.2714 11.5378C14.2714 12.3912 13.7515 13.0833 13.1106 13.0833ZM1.4482 18.1794L13.1106 18.1788C13.7515 18.1788 14.2714 18.8709 14.2714 19.7243C14.2714 20.1267 14.1558 20.4932 13.9665 20.7685L8.32247 29.8499C7.91471 30.5067 7.18385 30.5987 6.69054 30.0552C6.64103 30.0014 6.59587 29.9418 6.55462 29.88L0.573172 20.7384C0.152812 20.0955 0.20362 19.1195 0.686513 18.5592C0.906247 18.3048 1.17766 18.1799 1.4482 18.1794Z" fill="black"/>
</g>
<defs>
<clipPath id="clip0_420_1876">
<rect width="13.983" height="29.5571" fill="white" transform="translate(0.288086 0.852539)"/>
</clipPath>
</defs>
</svg>
